<?xml version="1.0" encoding="iso-8859-1"?>
<!-- Generator: Adobe Illustrator 19.0.0, SVG Export Plug-In . SVG Version: 6.00 Build 0)  -->
<svg version="1.1" id="Layer_1" xmlns="http://www.w3.org/2000/svg" xmlns:xlink="http://www.w3.org/1999/xlink" x="0px" y="0px"
	 viewBox="0 0 512 512" style="enable-background:new 0 0 512 512;" xml:space="preserve">
<g transform="translate(1 1)">
	<g>
		<polygon style="fill:#FFDD09;" points="33.133,502.467 101.4,502.467 101.4,468.333 33.133,468.333 		"/>
		<polygon style="fill:#FFDD09;" points="408.6,502.467 476.867,502.467 476.867,468.333 408.6,468.333 		"/>
	</g>
	<path style="fill:#FD9808;" d="M314.733,41.667h59.733c5.12,0,8.533-3.413,8.533-8.533V16.067c0-5.12-3.413-8.533-8.533-8.533
		h-59.733c-5.12,0-8.533,3.413-8.533,8.533v17.067C306.2,38.253,309.613,41.667,314.733,41.667"/>
	<path style="fill:#FFFFFF;" d="M135.533,41.667h59.733c5.12,0,8.533-3.413,8.533-8.533V16.067c0-5.12-3.413-8.533-8.533-8.533
		h-59.733c-5.12,0-8.533,3.413-8.533,8.533v17.067C127,38.253,130.413,41.667,135.533,41.667"/>
	<path style="fill:#FFDD09;" d="M161.133,41.667h187.733c5.12,0,8.533-3.413,8.533-8.533V16.067c0-5.12-3.413-8.533-8.533-8.533
		H161.133c-5.12,0-8.533,3.413-8.533,8.533v17.067C152.6,38.253,156.013,41.667,161.133,41.667"/>
	<polygon style="fill:#FD9808;" points="195.267,212.333 365.933,212.333 365.933,41.667 195.267,41.667 	"/>
	<polygon style="fill:#FFFFFF;" points="144.067,212.333 314.733,212.333 314.733,41.667 144.067,41.667 	"/>
	<polygon style="fill:#FFDD09;" points="169.667,212.333 340.333,212.333 340.333,41.667 169.667,41.667 	"/>
	<path style="fill:#FD9808;" d="M400.067,212.333H280.6c-5.12,0-8.533,3.413-8.533,8.533v281.6H408.6v-281.6
		C408.6,215.747,405.187,212.333,400.067,212.333"/>
	<g>
		<polygon style="fill:#54C9FD;" points="178.2,178.2 331.8,178.2 331.8,144.067 178.2,144.067 		"/>
		<polygon style="fill:#54C9FD;" points="178.2,109.933 331.8,109.933 331.8,75.8 178.2,75.8 		"/>
	</g>
	<path style="fill:#FFFFFF;" d="M229.4,212.333H109.933c-5.12,0-8.533,3.413-8.533,8.533v281.6h136.533v-281.6
		C237.933,215.747,234.52,212.333,229.4,212.333"/>
	<path style="fill:#FFDD09;" d="M229.4,212.333h-93.867c-5.12,0-8.533,3.413-8.533,8.533v281.6h256v-281.6
		c0-5.12-3.413-8.533-8.533-8.533H229.4z"/>
	<g>
		<polygon style="fill:#54C9FD;" points="144.067,348.867 365.933,348.867 365.933,314.733 144.067,314.733 		"/>
		<polygon style="fill:#54C9FD;" points="144.067,280.6 365.933,280.6 365.933,246.467 144.067,246.467 		"/>
		<polygon style="fill:#54C9FD;" points="144.067,417.133 365.933,417.133 365.933,383 144.067,383 		"/>
		<polygon style="fill:#54C9FD;" points="314.733,502.467 365.933,502.467 365.933,451.267 314.733,451.267 		"/>
		<polygon style="fill:#54C9FD;" points="144.067,502.467 280.6,502.467 280.6,451.267 144.067,451.267 		"/>
	</g>
	<path d="M374.467,50.2H135.533c-9.387,0-17.067-7.68-17.067-17.067V16.067C118.467,6.68,126.147-1,135.533-1h238.933
		c9.387,0,17.067,7.68,17.067,17.067v17.067C391.533,42.52,383.853,50.2,374.467,50.2z M135.533,16.067v17.067h238.933V16.067
		H135.533z"/>
	<path d="M408.6,511H101.4c-5.12,0-8.533-3.413-8.533-8.533v-281.6c0-9.387,7.68-17.067,17.067-17.067h290.133
		c9.387,0,17.067,7.68,17.067,17.067v281.6C417.133,507.587,413.72,511,408.6,511z M109.933,493.933h290.133V220.867H109.933
		V493.933z"/>
	<path d="M365.933,357.4H144.067c-5.12,0-8.533-3.413-8.533-8.533v-34.133c0-5.12,3.413-8.533,8.533-8.533h221.867
		c5.12,0,8.533,3.413,8.533,8.533v34.133C374.467,353.987,371.053,357.4,365.933,357.4z M152.6,340.333h204.8v-17.067H152.6V340.333
		z"/>
	<path d="M365.933,289.133H144.067c-5.12,0-8.533-3.413-8.533-8.533v-34.133c0-5.12,3.413-8.533,8.533-8.533h221.867
		c5.12,0,8.533,3.413,8.533,8.533V280.6C374.467,285.72,371.053,289.133,365.933,289.133z M152.6,272.067h204.8V255H152.6V272.067z"
		/>
	<path d="M331.8,186.733H178.2c-5.12,0-8.533-3.413-8.533-8.533v-34.133c0-5.12,3.413-8.533,8.533-8.533h153.6
		c5.12,0,8.533,3.413,8.533,8.533V178.2C340.333,183.32,336.92,186.733,331.8,186.733z M186.733,169.667h136.533V152.6H186.733
		V169.667z"/>
	<path d="M331.8,118.467H178.2c-5.12,0-8.533-3.413-8.533-8.533V75.8c0-5.12,3.413-8.533,8.533-8.533h153.6
		c5.12,0,8.533,3.413,8.533,8.533v34.133C340.333,115.053,336.92,118.467,331.8,118.467z M186.733,101.4h136.533V84.333H186.733
		V101.4z"/>
	<path d="M365.933,425.667H144.067c-5.12,0-8.533-3.413-8.533-8.533V383c0-5.12,3.413-8.533,8.533-8.533h221.867
		c5.12,0,8.533,3.413,8.533,8.533v34.133C374.467,422.253,371.053,425.667,365.933,425.667z M152.6,408.6h204.8v-17.067H152.6V408.6
		z"/>
	<path d="M365.933,511h-51.2c-5.12,0-8.533-3.413-8.533-8.533v-51.2c0-5.12,3.413-8.533,8.533-8.533h51.2
		c5.12,0,8.533,3.413,8.533,8.533v51.2C374.467,507.587,371.053,511,365.933,511z M323.267,493.933H357.4V459.8h-34.133V493.933z"/>
	<path d="M280.6,511H144.067c-5.12,0-8.533-3.413-8.533-8.533v-51.2c0-5.12,3.413-8.533,8.533-8.533H280.6
		c5.12,0,8.533,3.413,8.533,8.533v51.2C289.133,507.587,285.72,511,280.6,511z M152.6,493.933h119.467V459.8H152.6V493.933z"/>
	<path d="M365.933,220.867H144.067c-5.12,0-8.533-3.413-8.533-8.533V41.667c0-5.12,3.413-8.533,8.533-8.533h221.867
		c5.12,0,8.533,3.413,8.533,8.533v170.667C374.467,217.453,371.053,220.867,365.933,220.867z M152.6,203.8h204.8V50.2H152.6V203.8z"
		/>
	<path d="M101.4,511H33.133c-5.12,0-8.533-3.413-8.533-8.533v-34.133c0-5.12,3.413-8.533,8.533-8.533H101.4
		c5.12,0,8.533,3.413,8.533,8.533v34.133C109.933,507.587,106.52,511,101.4,511z M41.667,493.933h51.2v-17.067h-51.2V493.933z"/>
	<path d="M476.867,511H408.6c-5.12,0-8.533-3.413-8.533-8.533v-34.133c0-5.12,3.413-8.533,8.533-8.533h68.267
		c5.12,0,8.533,3.413,8.533,8.533v34.133C485.4,507.587,481.987,511,476.867,511z M417.133,493.933h51.2v-17.067h-51.2V493.933z"/>
</g>
<g>
</g>
<g>
</g>
<g>
</g>
<g>
</g>
<g>
</g>
<g>
</g>
<g>
</g>
<g>
</g>
<g>
</g>
<g>
</g>
<g>
</g>
<g>
</g>
<g>
</g>
<g>
</g>
<g>
</g>
</svg>
