<?xml version="1.0" encoding="iso-8859-1"?>
<!-- Generator: Adobe Illustrator 19.0.0, SVG Export Plug-In . SVG Version: 6.00 Build 0)  -->
<svg xmlns="http://www.w3.org/2000/svg" xmlns:xlink="http://www.w3.org/1999/xlink" version="1.1" id="Layer_1" x="0px" y="0px" viewBox="0 0 366.07 366.07" style="enable-background:new 0 0 366.07 366.07;" xml:space="preserve" width="512" height="512">
<g>
	<path style="fill:#5CBBCF;" d="M183.035,0c-5.563,0-10.072,4.509-10.072,10.072v41.171c0,5.563,4.509,10.072,10.072,10.072   c5.563,0,10.072-4.509,10.072-10.072V10.072C193.107,4.509,188.597,0,183.035,0z"/>
	<path style="fill:#4F9EAE;" d="M183.035,0c-5.563,0-10.072,4.509-10.072,10.072v41.171c0,5.563,4.509,10.072,10.072,10.072V0z"/>
	<g>
		<path style="fill:#F79F4B;" d="M257.543,366.07H108.527c-4.418,0-8-3.582-8-8V54.657c0-4.418,3.582-8,8-8h149.016    c4.418,0,8,3.582,8,8V358.07C265.543,362.488,261.961,366.07,257.543,366.07z"/>
		<path style="fill:#CA8540;" d="M183.035,366.07h-74.508c-4.418,0-8-3.582-8-8V54.657c0-4.418,3.582-8,8-8h74.508V366.07z"/>
		<g>
			<path style="fill:#83CFE0;" d="M155.035,83.126c-8.284,0-15,6.716-15,15v19c0,8.284,6.716,15,15,15s15-6.716,15-15v-19     C170.035,89.842,163.319,83.126,155.035,83.126z"/>
			<path style="fill:#C6E5E4;" d="M211.035,83.126c-8.284,0-15,6.716-15,15v19c0,8.284,6.716,15,15,15s15-6.716,15-15v-19     C226.035,89.842,219.319,83.126,211.035,83.126z"/>
			<path style="fill:#83CFE0;" d="M155.035,157.126c-8.284,0-15,6.716-15,15v19c0,8.284,6.716,15,15,15s15-6.716,15-15v-19     C170.035,163.842,163.319,157.126,155.035,157.126z"/>
			<path style="fill:#C6E5E4;" d="M211.035,157.126c-8.284,0-15,6.716-15,15v19c0,8.284,6.716,15,15,15s15-6.716,15-15v-19     C226.035,163.842,219.319,157.126,211.035,157.126z"/>
			<path style="fill:#83CFE0;" d="M155.035,231.126c-8.284,0-15,6.716-15,15v19c0,8.284,6.716,15,15,15s15-6.716,15-15v-19     C170.035,237.842,163.319,231.126,155.035,231.126z"/>
			<path style="fill:#C6E5E4;" d="M211.035,231.126c-8.284,0-15,6.716-15,15v19c0,8.284,6.716,15,15,15s15-6.716,15-15v-19     C226.035,237.842,219.319,231.126,211.035,231.126z"/>
		</g>
		<rect x="155.035" y="308.377" style="fill:#387F9E;" width="57.693" height="57.693"/>
		<polygon style="fill:#29556E;" points="155.035,366.07 155.035,308.377 183.881,308.377 183.035,366.07   "/>
	</g>
</g>















</svg>
