<?xml version="1.0" encoding="iso-8859-1"?>
<!-- Generator: Adobe Illustrator 19.0.0, SVG Export Plug-In . SVG Version: 6.00 Build 0)  -->
<svg version="1.1" id="Layer_1" xmlns="http://www.w3.org/2000/svg" xmlns:xlink="http://www.w3.org/1999/xlink" x="0px" y="0px"
	 viewBox="0 0 512 512" style="enable-background:new 0 0 512 512;" xml:space="preserve">
<g transform="translate(1 1)">
	<path style="fill:#FD9808;" d="M374.467,58.733h-85.333c-9.387,0-17.067-7.68-17.067-17.067V24.6
		c0-9.387,7.68-17.067,17.067-17.067h85.333c9.387,0,17.067,7.68,17.067,17.067v17.067
		C391.533,51.053,383.853,58.733,374.467,58.733"/>
	<path style="fill:#FFFFFF;" d="M220.867,58.733h-85.333c-9.387,0-17.067-7.68-17.067-17.067V24.6
		c0-9.387,7.68-17.067,17.067-17.067h85.333c9.387,0,17.067,7.68,17.067,17.067v17.067
		C237.933,51.053,230.253,58.733,220.867,58.733"/>
	<path style="fill:#FFDD09;" d="M348.867,58.733H161.133c-9.387,0-17.067-7.68-17.067-17.067V24.6
		c0-9.387,7.68-17.067,17.067-17.067h187.733c9.387,0,17.067,7.68,17.067,17.067v17.067
		C365.933,51.053,358.253,58.733,348.867,58.733"/>
	<polygon style="fill:#FD9808;" points="135.533,502.467 374.467,502.467 374.467,58.733 135.533,58.733 	"/>
	<polygon style="fill:#FFDD09;" points="135.533,502.467 348.867,502.467 348.867,58.733 135.533,58.733 	"/>
	<path style="fill:#FD9808;" d="M374.467,178.2H485.4c5.12,0,8.533-3.413,8.533-8.533V152.6c0-5.12-3.413-8.533-8.533-8.533H374.467
		V178.2z"/>
	<path style="fill:#FFDD09;" d="M374.467,178.2h87.04c3.413,0,6.827-3.413,6.827-8.533V152.6c0-5.12-3.413-8.533-6.827-8.533h-87.04
		V178.2z"/>
	<polygon style="fill:#FD9808;" points="374.467,502.467 476.867,502.467 476.867,178.2 374.467,178.2 	"/>
	<g>
		<polygon style="fill:#54C9FD;" points="169.667,135.533 203.8,135.533 203.8,101.4 169.667,101.4 		"/>
		<polygon style="fill:#54C9FD;" points="237.933,135.533 272.067,135.533 272.067,101.4 237.933,101.4 		"/>
		<polygon style="fill:#54C9FD;" points="306.2,135.533 340.333,135.533 340.333,101.4 306.2,101.4 		"/>
		<polygon style="fill:#54C9FD;" points="169.667,203.8 203.8,203.8 203.8,169.667 169.667,169.667 		"/>
		<polygon style="fill:#54C9FD;" points="237.933,203.8 272.067,203.8 272.067,169.667 237.933,169.667 		"/>
		<polygon style="fill:#54C9FD;" points="306.2,203.8 340.333,203.8 340.333,169.667 306.2,169.667 		"/>
		<polygon style="fill:#54C9FD;" points="169.667,272.067 203.8,272.067 203.8,237.933 169.667,237.933 		"/>
		<polygon style="fill:#54C9FD;" points="237.933,272.067 272.067,272.067 272.067,237.933 237.933,237.933 		"/>
		<polygon style="fill:#54C9FD;" points="306.2,272.067 340.333,272.067 340.333,237.933 306.2,237.933 		"/>
		<polygon style="fill:#54C9FD;" points="169.667,340.333 203.8,340.333 203.8,306.2 169.667,306.2 		"/>
		<polygon style="fill:#54C9FD;" points="237.933,340.333 272.067,340.333 272.067,306.2 237.933,306.2 		"/>
		<polygon style="fill:#54C9FD;" points="306.2,340.333 340.333,340.333 340.333,306.2 306.2,306.2 		"/>
	</g>
	<polygon style="fill:#FFDD09;" points="374.467,502.467 451.267,502.467 451.267,178.2 374.467,178.2 	"/>
	<path style="fill:#FFFFFF;" d="M135.533,178.2H24.6c-5.12,0-8.533-3.413-8.533-8.533V152.6c0-5.12,3.413-8.533,8.533-8.533h110.933
		V178.2z"/>
	<path style="fill:#FFDD09;" d="M135.533,178.2h-87.04c-3.413,0-6.827-3.413-6.827-8.533V152.6c0-5.12,3.413-8.533,6.827-8.533
		h87.04V178.2z"/>
	<polygon style="fill:#FFFFFF;" points="33.133,502.467 135.533,502.467 135.533,178.2 33.133,178.2 	"/>
	<polygon style="fill:#FFDD09;" points="58.733,502.467 135.533,502.467 135.533,178.2 58.733,178.2 	"/>
	<g>
		<polygon style="fill:#54C9FD;" points="408.6,246.467 442.733,246.467 442.733,212.333 408.6,212.333 		"/>
		<polygon style="fill:#54C9FD;" points="67.267,246.467 101.4,246.467 101.4,212.333 67.267,212.333 		"/>
		<polygon style="fill:#54C9FD;" points="67.267,314.733 101.4,314.733 101.4,280.6 67.267,280.6 		"/>
		<polygon style="fill:#54C9FD;" points="67.267,383 101.4,383 101.4,348.867 67.267,348.867 		"/>
		<polygon style="fill:#54C9FD;" points="408.6,314.733 442.733,314.733 442.733,280.6 408.6,280.6 		"/>
		<polygon style="fill:#54C9FD;" points="408.6,383 442.733,383 442.733,348.867 408.6,348.867 		"/>
	</g>
	<path d="M314.733,511H195.267c-5.12,0-8.533-3.413-8.533-8.533v-102.4c0-5.12,3.413-8.533,8.533-8.533h119.467
		c5.12,0,8.533,3.413,8.533,8.533v102.4C323.267,507.587,319.853,511,314.733,511z M203.8,493.933h102.4V408.6H203.8V493.933z"/>
	<path d="M374.467,511H135.533c-5.12,0-8.533-3.413-8.533-8.533V58.733c0-5.12,3.413-8.533,8.533-8.533h238.933
		c5.12,0,8.533,3.413,8.533,8.533v443.733C383,507.587,379.587,511,374.467,511z M144.067,493.933h221.867V67.267H144.067V493.933z"
		/>
	<path d="M374.467,67.267H135.533c-14.507,0-25.6-11.093-25.6-25.6V24.6c0-14.507,11.093-25.6,25.6-25.6h238.933
		c14.507,0,25.6,11.093,25.6,25.6v17.067C400.067,56.173,388.973,67.267,374.467,67.267z M135.533,16.067
		c-5.12,0-8.533,3.413-8.533,8.533v17.067c0,5.12,3.413,8.533,8.533,8.533h238.933c5.12,0,8.533-3.413,8.533-8.533V24.6
		c0-5.12-3.413-8.533-8.533-8.533H135.533z"/>
	<path d="M135.533,511h-102.4c-5.12,0-8.533-3.413-8.533-8.533V178.2c0-5.12,3.413-8.533,8.533-8.533h102.4
		c5.12,0,8.533,3.413,8.533,8.533v324.267C144.067,507.587,140.653,511,135.533,511z M41.667,493.933H127v-307.2H41.667V493.933z"/>
	<path d="M135.533,186.733H24.6c-9.387,0-17.067-7.68-17.067-17.067V152.6c0-9.387,7.68-17.067,17.067-17.067h110.933
		c5.12,0,8.533,3.413,8.533,8.533V178.2C144.067,183.32,140.653,186.733,135.533,186.733z M24.6,152.6v17.067H127V152.6H24.6z"/>
	<path d="M476.867,511h-102.4c-5.12,0-8.533-3.413-8.533-8.533V178.2c0-5.12,3.413-8.533,8.533-8.533h102.4
		c5.12,0,8.533,3.413,8.533,8.533v324.267C485.4,507.587,481.987,511,476.867,511z M383,493.933h85.333v-307.2H383V493.933z"/>
	<path d="M485.4,186.733H374.467c-5.12,0-8.533-3.413-8.533-8.533v-34.133c0-5.12,3.413-8.533,8.533-8.533H485.4
		c9.387,0,17.067,7.68,17.067,17.067v17.067C502.467,179.053,494.787,186.733,485.4,186.733z M383,169.667h102.4V152.6H383V169.667z
		"/>
	<path d="M203.8,144.067h-34.133c-5.12,0-8.533-3.413-8.533-8.533V101.4c0-5.12,3.413-8.533,8.533-8.533H203.8
		c5.12,0,8.533,3.413,8.533,8.533v34.133C212.333,140.653,208.92,144.067,203.8,144.067z M178.2,127h17.067v-17.067H178.2V127z"/>
	<path d="M272.067,144.067h-34.133c-5.12,0-8.533-3.413-8.533-8.533V101.4c0-5.12,3.413-8.533,8.533-8.533h34.133
		c5.12,0,8.533,3.413,8.533,8.533v34.133C280.6,140.653,277.187,144.067,272.067,144.067z M246.467,127h17.067v-17.067h-17.067V127z
		"/>
	<path d="M340.333,144.067H306.2c-5.12,0-8.533-3.413-8.533-8.533V101.4c0-5.12,3.413-8.533,8.533-8.533h34.133
		c5.12,0,8.533,3.413,8.533,8.533v34.133C348.867,140.653,345.453,144.067,340.333,144.067z M314.733,127H331.8v-17.067h-17.067V127
		z"/>
	<path d="M203.8,212.333h-34.133c-5.12,0-8.533-3.413-8.533-8.533v-34.133c0-5.12,3.413-8.533,8.533-8.533H203.8
		c5.12,0,8.533,3.413,8.533,8.533V203.8C212.333,208.92,208.92,212.333,203.8,212.333z M178.2,195.267h17.067V178.2H178.2V195.267z"
		/>
	<path d="M272.067,212.333h-34.133c-5.12,0-8.533-3.413-8.533-8.533v-34.133c0-5.12,3.413-8.533,8.533-8.533h34.133
		c5.12,0,8.533,3.413,8.533,8.533V203.8C280.6,208.92,277.187,212.333,272.067,212.333z M246.467,195.267h17.067V178.2h-17.067
		V195.267z"/>
	<path d="M340.333,212.333H306.2c-5.12,0-8.533-3.413-8.533-8.533v-34.133c0-5.12,3.413-8.533,8.533-8.533h34.133
		c5.12,0,8.533,3.413,8.533,8.533V203.8C348.867,208.92,345.453,212.333,340.333,212.333z M314.733,195.267H331.8V178.2h-17.067
		V195.267z"/>
	<path d="M203.8,280.6h-34.133c-5.12,0-8.533-3.413-8.533-8.533v-34.133c0-5.12,3.413-8.533,8.533-8.533H203.8
		c5.12,0,8.533,3.413,8.533,8.533v34.133C212.333,277.187,208.92,280.6,203.8,280.6z M178.2,263.533h17.067v-17.067H178.2V263.533z"
		/>
	<path d="M272.067,280.6h-34.133c-5.12,0-8.533-3.413-8.533-8.533v-34.133c0-5.12,3.413-8.533,8.533-8.533h34.133
		c5.12,0,8.533,3.413,8.533,8.533v34.133C280.6,277.187,277.187,280.6,272.067,280.6z M246.467,263.533h17.067v-17.067h-17.067
		V263.533z"/>
	<path d="M340.333,280.6H306.2c-5.12,0-8.533-3.413-8.533-8.533v-34.133c0-5.12,3.413-8.533,8.533-8.533h34.133
		c5.12,0,8.533,3.413,8.533,8.533v34.133C348.867,277.187,345.453,280.6,340.333,280.6z M314.733,263.533H331.8v-17.067h-17.067
		V263.533z"/>
	<path d="M203.8,348.867h-34.133c-5.12,0-8.533-3.413-8.533-8.533V306.2c0-5.12,3.413-8.533,8.533-8.533H203.8
		c5.12,0,8.533,3.413,8.533,8.533v34.133C212.333,345.453,208.92,348.867,203.8,348.867z M178.2,331.8h17.067v-17.067H178.2V331.8z"
		/>
	<path d="M272.067,348.867h-34.133c-5.12,0-8.533-3.413-8.533-8.533V306.2c0-5.12,3.413-8.533,8.533-8.533h34.133
		c5.12,0,8.533,3.413,8.533,8.533v34.133C280.6,345.453,277.187,348.867,272.067,348.867z M246.467,331.8h17.067v-17.067h-17.067
		V331.8z"/>
	<path d="M340.333,348.867H306.2c-5.12,0-8.533-3.413-8.533-8.533V306.2c0-5.12,3.413-8.533,8.533-8.533h34.133
		c5.12,0,8.533,3.413,8.533,8.533v34.133C348.867,345.453,345.453,348.867,340.333,348.867z M314.733,331.8H331.8v-17.067h-17.067
		V331.8z"/>
	<path d="M101.4,255H67.267c-5.12,0-8.533-3.413-8.533-8.533v-34.133c0-5.12,3.413-8.533,8.533-8.533H101.4
		c5.12,0,8.533,3.413,8.533,8.533v34.133C109.933,251.587,106.52,255,101.4,255z M75.8,237.933h17.067v-17.067H75.8V237.933z"/>
	<path d="M101.4,323.267H67.267c-5.12,0-8.533-3.413-8.533-8.533V280.6c0-5.12,3.413-8.533,8.533-8.533H101.4
		c5.12,0,8.533,3.413,8.533,8.533v34.133C109.933,319.853,106.52,323.267,101.4,323.267z M75.8,306.2h17.067v-17.067H75.8V306.2z"/>
	<path d="M101.4,391.533H67.267c-5.12,0-8.533-3.413-8.533-8.533v-34.133c0-5.12,3.413-8.533,8.533-8.533H101.4
		c5.12,0,8.533,3.413,8.533,8.533V383C109.933,388.12,106.52,391.533,101.4,391.533z M75.8,374.467h17.067V357.4H75.8V374.467z"/>
	<path d="M442.733,255H408.6c-5.12,0-8.533-3.413-8.533-8.533v-34.133c0-5.12,3.413-8.533,8.533-8.533h34.133
		c5.12,0,8.533,3.413,8.533,8.533v34.133C451.267,251.587,447.853,255,442.733,255z M417.133,237.933H434.2v-17.067h-17.067V237.933
		z"/>
	<path d="M442.733,323.267H408.6c-5.12,0-8.533-3.413-8.533-8.533V280.6c0-5.12,3.413-8.533,8.533-8.533h34.133
		c5.12,0,8.533,3.413,8.533,8.533v34.133C451.267,319.853,447.853,323.267,442.733,323.267z M417.133,306.2H434.2v-17.067h-17.067
		V306.2z"/>
	<path d="M442.733,391.533H408.6c-5.12,0-8.533-3.413-8.533-8.533v-34.133c0-5.12,3.413-8.533,8.533-8.533h34.133
		c5.12,0,8.533,3.413,8.533,8.533V383C451.267,388.12,447.853,391.533,442.733,391.533z M417.133,374.467H434.2V357.4h-17.067
		V374.467z"/>
	<path d="M255,510.147c-5.12,0-8.533-3.413-8.533-8.533V400.067c0-5.12,3.413-8.533,8.533-8.533s8.533,3.413,8.533,8.533v101.547
		C263.533,505.88,260.12,510.147,255,510.147z"/>
	<path d="M272.067,459.8h-34.133c-5.12,0-8.533-3.413-8.533-8.533s3.413-8.533,8.533-8.533h34.133c5.12,0,8.533,3.413,8.533,8.533
		S277.187,459.8,272.067,459.8z"/>
</g>
<g>
</g>
<g>
</g>
<g>
</g>
<g>
</g>
<g>
</g>
<g>
</g>
<g>
</g>
<g>
</g>
<g>
</g>
<g>
</g>
<g>
</g>
<g>
</g>
<g>
</g>
<g>
</g>
<g>
</g>
</svg>
