<?xml version="1.0" encoding="iso-8859-1"?>
<!-- Generator: Adobe Illustrator 19.0.0, SVG Export Plug-In . SVG Version: 6.00 Build 0)  -->
<svg version="1.1" id="Layer_1" xmlns="http://www.w3.org/2000/svg" xmlns:xlink="http://www.w3.org/1999/xlink" x="0px" y="0px"
	 viewBox="0 0 512 512" style="enable-background:new 0 0 512 512;" xml:space="preserve">
<g transform="translate(1 1)">
	<path style="fill:#FD9808;" d="M484.517,307.966H210.862c-9.71,0-17.655-7.945-17.655-17.655v-17.655
		c0-9.71,7.945-17.655,17.655-17.655h273.655c9.71,0,17.655,7.945,17.655,17.655v17.655
		C502.172,300.021,494.228,307.966,484.517,307.966"/>
	<path style="fill:#FFFFFF;" d="M299.138,307.966H25.483c-9.71,0-17.655-7.945-17.655-17.655v-17.655
		c0-9.71,7.945-17.655,17.655-17.655h273.655c9.71,0,17.655,7.945,17.655,17.655v17.655
		C316.793,300.021,308.848,307.966,299.138,307.966"/>
	<path style="fill:#FFDD09;" d="M458.034,307.966H51.966c-9.71,0-17.655-7.945-17.655-17.655v-17.655
		c0-9.71,7.945-17.655,17.655-17.655h406.069c9.71,0,17.655,7.945,17.655,17.655v17.655
		C475.69,300.021,467.745,307.966,458.034,307.966"/>
	<path style="fill:#FD9808;" d="M484.517,60.793H210.862c-9.71,0-17.655-7.945-17.655-17.655V25.483
		c0-9.71,7.945-17.655,17.655-17.655h273.655c9.71,0,17.655,7.945,17.655,17.655v17.655
		C502.172,52.848,494.228,60.793,484.517,60.793"/>
	<path style="fill:#FFFFFF;" d="M299.138,60.793H25.483c-9.71,0-17.655-7.945-17.655-17.655V25.483
		c0-9.71,7.945-17.655,17.655-17.655h273.655c9.71,0,17.655,7.945,17.655,17.655v17.655
		C316.793,52.848,308.848,60.793,299.138,60.793"/>
	<path style="fill:#FFDD09;" d="M458.034,60.793H51.966c-9.71,0-17.655-7.945-17.655-17.655V25.483
		c0-9.71,7.945-17.655,17.655-17.655h406.069c9.71,0,17.655,7.945,17.655,17.655v17.655
		C475.69,52.848,467.745,60.793,458.034,60.793"/>
	<g>
		<polygon style="fill:#FD9808;" points="25.483,502.172 484.517,502.172 484.517,307.966 25.483,307.966 		"/>
		<polygon style="fill:#FD9808;" points="25.483,255 484.517,255 484.517,60.793 25.483,60.793 		"/>
	</g>
	<g>
		<polygon style="fill:#FFDD09;" points="25.483,502.172 458.034,502.172 458.034,307.966 25.483,307.966 		"/>
		<polygon style="fill:#FFDD09;" points="25.483,255 458.034,255 458.034,60.793 25.483,60.793 		"/>
	</g>
	<g>
		<polygon style="fill:#54C9FD;" points="210.862,502.172 299.138,502.172 299.138,360.931 210.862,360.931 		"/>
		<polygon style="fill:#54C9FD;" points="210.862,202.034 299.138,202.034 299.138,113.759 210.862,113.759 		"/>
		<polygon style="fill:#54C9FD;" points="69.621,202.034 157.897,202.034 157.897,113.759 69.621,113.759 		"/>
		<polygon style="fill:#54C9FD;" points="352.103,202.034 440.379,202.034 440.379,113.759 352.103,113.759 		"/>
		<polygon style="fill:#54C9FD;" points="69.621,449.207 157.897,449.207 157.897,360.931 69.621,360.931 		"/>
		<polygon style="fill:#54C9FD;" points="352.103,449.207 440.379,449.207 440.379,360.931 352.103,360.931 		"/>
	</g>
	<path d="M484.517,511H25.483c-5.297,0-8.828-3.531-8.828-8.828V307.966c0-5.297,3.531-8.828,8.828-8.828h459.034
		c5.297,0,8.828,3.531,8.828,8.828v194.207C493.345,507.469,489.814,511,484.517,511z M34.31,493.345H475.69V316.793H34.31V493.345z
		"/>
	<path d="M484.517,316.793H25.483C10.476,316.793-1,305.317-1,290.31v-17.655c0-15.007,11.476-26.483,26.483-26.483h459.034
		c15.007,0,26.483,11.476,26.483,26.483v17.655C511,305.317,499.524,316.793,484.517,316.793z M25.483,263.828
		c-5.297,0-8.828,4.414-8.828,8.828v17.655c0,5.297,3.531,8.828,8.828,8.828h459.034c5.297,0,8.828-4.414,8.828-8.828v-17.655
		c0-5.297-4.414-8.828-8.828-8.828H25.483z"/>
	<path d="M484.517,263.828H25.483c-5.297,0-8.828-3.531-8.828-8.828V60.793c0-5.297,3.531-8.828,8.828-8.828h459.034
		c5.297,0,8.828,3.531,8.828,8.828V255C493.345,260.297,489.814,263.828,484.517,263.828z M34.31,246.172H475.69V69.621H34.31
		V246.172z"/>
	<path d="M485.4,69.621H24.6C10.476,69.621-1,58.145-1,43.138V25.483C-1,10.476,10.476-1,24.6-1h459.917
		C499.524-1,511,10.476,511,25.483v17.655C511,58.145,499.524,69.621,485.4,69.621z M24.6,16.655c-4.414,0-7.945,3.531-7.945,8.828
		v17.655c0,5.297,3.531,8.828,7.945,8.828h459.917c5.297,0,8.828-3.531,8.828-8.828V25.483c0-5.297-3.531-8.828-7.945-8.828H24.6z"
		/>
	<path d="M299.138,511h-88.276c-5.297,0-8.828-3.531-8.828-8.828V360.931c0-5.297,3.531-8.828,8.828-8.828h88.276
		c5.297,0,8.828,3.531,8.828,8.828v141.241C307.966,507.469,304.434,511,299.138,511z M219.69,493.345h70.621V369.759H219.69
		V493.345z"/>
	<path d="M299.138,210.862h-88.276c-5.297,0-8.828-3.531-8.828-8.828v-88.276c0-5.297,3.531-8.828,8.828-8.828h88.276
		c5.297,0,8.828,3.531,8.828,8.828v88.276C307.966,207.331,304.434,210.862,299.138,210.862z M219.69,193.207h70.621v-70.621H219.69
		V193.207z"/>
	<path d="M299.138,166.724h-88.276c-5.297,0-8.828-3.531-8.828-8.828s3.531-8.828,8.828-8.828h88.276
		c5.297,0,8.828,3.531,8.828,8.828S304.434,166.724,299.138,166.724z"/>
	<path d="M255,210.862c-5.297,0-8.828-3.531-8.828-8.828v-88.276c0-5.297,3.531-8.828,8.828-8.828c5.297,0,8.828,3.531,8.828,8.828
		v88.276C263.828,207.331,260.297,210.862,255,210.862z"/>
	<path d="M307.966,210.862H202.034c-5.297,0-8.828-3.531-8.828-8.828s3.531-8.828,8.828-8.828h105.931
		c5.297,0,8.828,3.531,8.828,8.828S313.262,210.862,307.966,210.862z"/>
	<path d="M157.897,210.862H69.621c-5.297,0-8.828-3.531-8.828-8.828v-88.276c0-5.297,3.531-8.828,8.828-8.828h88.276
		c5.297,0,8.828,3.531,8.828,8.828v88.276C166.724,207.331,163.193,210.862,157.897,210.862z M78.448,193.207h70.621v-70.621H78.448
		V193.207z"/>
	<path d="M157.897,166.724H69.621c-5.297,0-8.828-3.531-8.828-8.828s3.531-8.828,8.828-8.828h88.276
		c5.297,0,8.828,3.531,8.828,8.828S163.193,166.724,157.897,166.724z"/>
	<path d="M113.759,210.862c-5.297,0-8.828-3.531-8.828-8.828v-88.276c0-5.297,3.531-8.828,8.828-8.828s8.828,3.531,8.828,8.828
		v88.276C122.586,207.331,119.055,210.862,113.759,210.862z"/>
	<path d="M166.724,210.862H60.793c-5.297,0-8.828-3.531-8.828-8.828s3.531-8.828,8.828-8.828h105.931
		c5.297,0,8.828,3.531,8.828,8.828S172.021,210.862,166.724,210.862z"/>
	<path d="M440.379,210.862h-88.276c-5.297,0-8.828-3.531-8.828-8.828v-88.276c0-5.297,3.531-8.828,8.828-8.828h88.276
		c5.297,0,8.828,3.531,8.828,8.828v88.276C449.207,207.331,445.676,210.862,440.379,210.862z M360.931,193.207h70.621v-70.621
		h-70.621V193.207z"/>
	<path d="M440.379,166.724h-88.276c-5.297,0-8.828-3.531-8.828-8.828s3.531-8.828,8.828-8.828h88.276
		c5.297,0,8.828,3.531,8.828,8.828S445.676,166.724,440.379,166.724z"/>
	<path d="M396.241,210.862c-5.297,0-8.828-3.531-8.828-8.828v-88.276c0-5.297,3.531-8.828,8.828-8.828
		c5.297,0,8.828,3.531,8.828,8.828v88.276C405.069,207.331,401.538,210.862,396.241,210.862z"/>
	<path d="M449.207,210.862H343.276c-5.297,0-8.828-3.531-8.828-8.828s3.531-8.828,8.828-8.828h105.931
		c5.297,0,8.828,3.531,8.828,8.828S454.503,210.862,449.207,210.862z"/>
	<path d="M157.897,458.034H69.621c-5.297,0-8.828-3.531-8.828-8.828v-88.276c0-5.297,3.531-8.828,8.828-8.828h88.276
		c5.297,0,8.828,3.531,8.828,8.828v88.276C166.724,454.503,163.193,458.034,157.897,458.034z M78.448,440.379h70.621v-70.621H78.448
		V440.379z"/>
	<path d="M157.897,413.897H69.621c-5.297,0-8.828-3.531-8.828-8.828s3.531-8.828,8.828-8.828h88.276
		c5.297,0,8.828,3.531,8.828,8.828S163.193,413.897,157.897,413.897z"/>
	<path d="M113.759,458.034c-5.297,0-8.828-3.531-8.828-8.828v-88.276c0-5.297,3.531-8.828,8.828-8.828s8.828,3.531,8.828,8.828
		v88.276C122.586,454.503,119.055,458.034,113.759,458.034z"/>
	<path d="M166.724,458.034H60.793c-5.297,0-8.828-3.531-8.828-8.828c0-5.297,3.531-8.828,8.828-8.828h105.931
		c5.297,0,8.828,3.531,8.828,8.828C175.552,454.503,172.021,458.034,166.724,458.034z"/>
	<path d="M440.379,458.034h-88.276c-5.297,0-8.828-3.531-8.828-8.828v-88.276c0-5.297,3.531-8.828,8.828-8.828h88.276
		c5.297,0,8.828,3.531,8.828,8.828v88.276C449.207,454.503,445.676,458.034,440.379,458.034z M360.931,440.379h70.621v-70.621
		h-70.621V440.379z"/>
	<path d="M440.379,413.897h-88.276c-5.297,0-8.828-3.531-8.828-8.828s3.531-8.828,8.828-8.828h88.276
		c5.297,0,8.828,3.531,8.828,8.828S445.676,413.897,440.379,413.897z"/>
	<path d="M396.241,458.034c-5.297,0-8.828-3.531-8.828-8.828v-88.276c0-5.297,3.531-8.828,8.828-8.828
		c5.297,0,8.828,3.531,8.828,8.828v88.276C405.069,454.503,401.538,458.034,396.241,458.034z"/>
	<path d="M449.207,458.034H343.276c-5.297,0-8.828-3.531-8.828-8.828c0-5.297,3.531-8.828,8.828-8.828h105.931
		c5.297,0,8.828,3.531,8.828,8.828C458.034,454.503,454.503,458.034,449.207,458.034z"/>
	<path d="M272.655,440.379h-8.828c-5.297,0-8.828-3.531-8.828-8.828s3.531-8.828,8.828-8.828h8.828c5.297,0,8.828,3.531,8.828,8.828
		S277.952,440.379,272.655,440.379z"/>
</g>
<g>
</g>
<g>
</g>
<g>
</g>
<g>
</g>
<g>
</g>
<g>
</g>
<g>
</g>
<g>
</g>
<g>
</g>
<g>
</g>
<g>
</g>
<g>
</g>
<g>
</g>
<g>
</g>
<g>
</g>
</svg>
